<?xml version="1.0" encoding="UTF-8" standalone="no"?>
<!-- Created with Inkscape (http://www.inkscape.org/) -->

<svg
   xmlns:dc="http://purl.org/dc/elements/1.1/"
   xmlns:cc="http://creativecommons.org/ns#"
   xmlns:rdf="http://www.w3.org/1999/02/22-rdf-syntax-ns#"
   xmlns:svg="http://www.w3.org/2000/svg"
   xmlns="http://www.w3.org/2000/svg"
   xmlns:sodipodi="http://sodipodi.sourceforge.net/DTD/sodipodi-0.dtd"
   xmlns:inkscape="http://www.inkscape.org/namespaces/inkscape"
   width="125.61211mm"
   height="87.442047mm"
   viewBox="0 0 445.08235 309.8339"
   id="svg2"
   version="1.1"
   inkscape:version="0.91 r13725"
   sodipodi:docname="letsgo.en.svg">
  <defs
     id="defs4" />
  <sodipodi:namedview
     id="base"
     pagecolor="#ffffff"
     bordercolor="#666666"
     borderopacity="1.0"
     inkscape:pageopacity="0.0"
     inkscape:pageshadow="2"
     inkscape:zoom="1.4"
     inkscape:cx="97.285868"
     inkscape:cy="186.47099"
     inkscape:document-units="px"
     inkscape:current-layer="layer1"
     showgrid="false"
     inkscape:window-width="1680"
     inkscape:window-height="987"
     inkscape:window-x="-8"
     inkscape:window-y="-8"
     inkscape:window-maximized="1"
     units="mm"
     width="115mm"
     fit-margin-top="0"
     fit-margin-left="0"
     fit-margin-right="0"
     fit-margin-bottom="0" />
  <metadata
     id="metadata7">
    <rdf:RDF>
      <cc:Work
         rdf:about="">
        <dc:format>image/svg+xml</dc:format>
        <dc:type
           rdf:resource="http://purl.org/dc/dcmitype/StillImage" />
        <dc:title></dc:title>
      </cc:Work>
    </rdf:RDF>
  </metadata>
  <g
     inkscape:label="Calque 1"
     inkscape:groupmode="layer"
     id="layer1"
     transform="translate(-11.108111,-656.84189)">
    <text
       xml:space="preserve"
       style="font-style:normal;font-weight:normal;font-size:42.88362885px;line-height:125%;font-family:sans-serif;letter-spacing:0px;word-spacing:0px;fill:#000000;fill-opacity:1;stroke:none;stroke-width:1px;stroke-linecap:butt;stroke-linejoin:miter;stroke-opacity:1"
       x="170.46268"
       y="645.25519"
       id="text3674"
       sodipodi:linespacing="125%"
       transform="scale(0.93275682,1.0720908)"><tspan
         sodipodi:role="line"
         x="170.46268"
         y="645.25519"
         id="tspan3676"><tspan
           x="170.46268"
           y="645.25519"
           id="tspan3678">Let's go!</tspan></tspan></text>
    <path
       style="fill:#000000;fill-opacity:1;fill-rule:nonzero;stroke:none;stroke-width:1px;stroke-linecap:butt;stroke-linejoin:miter;stroke-opacity:1"
       id="path3344"
       d="m 124.72738,662.92263 c -2.48708,1.77551 -5.12383,3.38236 -7.79708,4.94329 -3.0218,1.80551 -6.04302,3.60907 -9.1232,5.34125 -4.24569,2.56814 -8.515996,5.10476 -12.708732,7.73619 -4.910195,3.07584 -9.685133,6.27067 -14.160781,9.8006 -5.585583,4.27104 -10.625303,9.01305 -15.490294,13.87602 -6.062441,6.22118 -11.423081,12.89939 -16.692422,19.61842 -5.706771,7.17003 -9.707049,15.12565 -13.615661,23.08534 -3.895882,8.01148 -6.198246,16.46331 -8.517115,24.88004 -2.903564,10.46619 -4.221148,21.18451 -5.512287,31.86518 -1.138177,9.88297 -1.491868,19.83564 -0.83979,29.75451 0.137075,2.08487 0.358426,4.16506 0.537651,6.24758 1.211381,11.92655 4.630852,23.59151 9.154517,34.8944 1.007987,2.51859 2.13595,5.00081 3.203919,7.50121 5.308322,11.53248 11.465974,22.82848 19.12088,33.36947 1.325213,1.82484 2.754845,3.59256 4.132262,5.38884 7.063256,8.74665 15.923435,16.19307 25.178516,23.21488 5.216028,3.85061 10.547548,7.62034 16.264064,10.91937 0,0 -9.13736,4.976 -9.13736,4.976 l 0,0 c -5.494719,-3.52003 -10.663873,-7.39551 -15.793818,-11.29314 -9.19534,-7.15708 -18.034438,-14.69504 -24.973178,-23.58412 -1.363417,-1.8186 -2.778626,-3.60946 -4.090262,-5.45576 -7.56316,-10.6462 -13.612687,-22.04109 -18.978658,-33.60379 -1.085492,-2.50435 -2.225671,-4.99183 -3.256489,-7.51306 -4.624698,-11.31145 -8.221849,-22.97485 -9.559358,-34.93141 -0.195329,-2.08682 -0.435301,-4.17094 -0.585988,-6.26049 -0.716875,-9.94048 -0.37993,-19.92154 0.708639,-29.83209 1.227017,-10.67772 2.481828,-21.39036 5.242187,-31.8739 2.242347,-8.45422 4.486251,-16.93727 8.36008,-24.98206 3.927233,-7.99105 7.875834,-16.01 13.545899,-23.24294 5.22654,-6.72127 10.532072,-13.40674 16.511413,-19.66175 4.781939,-4.87439 9.728415,-9.64702 15.265032,-13.9105 1.591951,-1.28171 3.017066,-2.46235 4.683719,-3.67279 3.011358,-2.18702 6.280017,-4.09072 9.361113,-6.20141 4.155894,-2.62341 8.400342,-5.13628 12.568612,-7.74467 3.0704,-1.70015 6.07058,-3.48446 9.04751,-5.30173 2.64727,-1.50185 5.25794,-3.05277 7.70176,-4.7927 0,0 10.2447,-3.55428 10.2447,-3.55428 z"
       inkscape:connector-curvature="0" />
    <path
       style="fill:#000000;fill-opacity:1;fill-rule:nonzero;stroke:none;stroke-width:1px;stroke-linecap:butt;stroke-linejoin:miter;stroke-opacity:1"
       id="path3346"
       d="m 44.601269,944.86304 c 4.06963,-0.11559 8.04435,0.62238 12.00869,1.42419 6.40669,1.46711 12.59915,3.69694 18.74293,5.97814 4.92731,1.63446 9.54195,3.99796 14.2495,6.1334 1.96068,0.71058 4.56539,2.67602 6.74889,2.11856 2.66141,-2.84975 -0.6562,0.7807 -8.32417,4.44699 -0.28632,0.13691 0.29134,-0.56001 0.38292,-0.85956 0.58799,-1.92321 0.72385,-4.045 0.96879,-6.02154 0.84829,-9.31837 1.79977,-18.62357 2.80941,-27.9272 0.46851,-4.14017 0.92949,-8.28025 1.45222,-12.41414 0,0 9.008311,-4.35303 9.008311,-4.35303 l 0,0 c -0.66776,4.16328 -1.23179,8.33823 -1.74689,12.52279 -0.58588,5.19695 -1.237771,10.39321 -1.626461,15.60931 -0.0992,1.33118 -0.40168,7.21866 -0.50192,8.78978 -0.0703,1.10195 -0.16105,2.20253 -0.24157,3.30379 -0.25959,3.30536 -0.0982,1.66815 -0.43314,4.55002 -0.59273,5.09922 -1.72219,7.93277 -10.28596,8.51134 -2.46443,-0.29503 -4.61775,-1.67944 -6.8309,-2.68328 -4.60349,-2.21883 -9.17234,-4.5344 -14.03568,-6.17672 -6.09727,-2.30565 -12.27325,-4.50209 -18.68476,-5.80881 -4.04672,-0.72767 -8.10972,-1.31606 -12.23809,-1.02319 0,0 8.57788,-6.12084 8.57788,-6.12084 z"
       inkscape:connector-curvature="0" />
    <text
       xml:space="preserve"
       style="font-style:normal;font-weight:normal;font-size:35.52453613px;line-height:125%;font-family:sans-serif;letter-spacing:0px;word-spacing:0px;fill:#000000;fill-opacity:1;stroke:none;stroke-width:1px;stroke-linecap:butt;stroke-linejoin:miter;stroke-opacity:1"
       x="41.224915"
       y="753.71466"
       id="text3680"
       sodipodi:linespacing="125%"
       transform="scale(0.96765305,1.0334283)"><tspan
         sodipodi:role="line"
         x="41.224915"
         y="753.71466"
         id="tspan3682"><tspan
           x="41.224915"
           y="753.71466"
           style="font-size:26.6434021px"
           id="tspan3684">Test</tspan></tspan></text>
    <text
       xml:space="preserve"
       style="font-style:normal;font-weight:normal;font-size:36.25308609px;line-height:125%;font-family:sans-serif;letter-spacing:0px;word-spacing:0px;fill:#000000;fill-opacity:1;stroke:none;stroke-width:1px;stroke-linecap:butt;stroke-linejoin:miter;stroke-opacity:1"
       x="330.3121"
       y="839.02844"
       id="text3686"
       sodipodi:linespacing="125%"
       transform="scale(0.98611287,1.0140827)"><tspan
         sodipodi:role="line"
         x="330.3121"
         y="839.02844"
         id="tspan3688"><tspan
           x="330.3121"
           y="839.02844"
           style="font-size:27.18981743px"
           id="tspan3690">Sign in</tspan></tspan></text>
    <path
       style="fill:#000000;fill-opacity:1;fill-rule:nonzero;stroke:none;stroke-width:1px;stroke-linecap:butt;stroke-linejoin:miter;stroke-opacity:1"
       id="path3344-9"
       d="m 374.80968,725.40462 c 1.78139,1.40256 3.66998,2.67188 5.58473,3.90491 2.16438,1.42623 4.32836,2.85095 6.53456,4.21926 3.04101,2.02869 6.09966,4.03247 9.10273,6.11113 3.51697,2.42974 6.93707,4.95346 10.14279,7.74192 4.00072,3.37387 7.61046,7.11977 11.09505,10.96123 4.34227,4.91437 8.18187,10.18975 11.95608,15.49741 4.08753,5.66391 6.95275,11.94837 9.75233,18.23605 2.79045,6.32859 4.43954,13.00506 6.10046,19.65375 2.0797,8.26768 3.02343,16.73452 3.94822,25.17163 0.81523,7.80696 1.06856,15.66898 0.60151,23.50431 -0.0982,1.64692 -0.25673,3.29014 -0.38509,4.93521 -0.86767,9.42127 -3.3169,18.63592 -6.55702,27.56453 -0.72197,1.98955 -1.52989,3.95034 -2.29483,5.92551 -3.80213,9.10998 -8.21259,18.03314 -13.69548,26.35991 -0.94919,1.44151 -1.97318,2.83791 -2.95977,4.25685 -5.05912,6.90934 -11.4053,12.79158 -18.03432,18.3384 -3.73602,3.04172 -7.55478,6.01962 -11.64928,8.62565 0,0 6.54473,3.93075 6.54473,3.93075 l 0,0 c 3.93563,-2.78061 7.63808,-5.84203 11.31244,-8.92091 6.58624,-5.65368 12.91731,-11.60822 17.88724,-18.63007 0.97657,-1.43658 1.99021,-2.85125 2.92968,-4.30973 5.41718,-8.40986 9.7502,-17.41115 13.59363,-26.545 0.7775,-1.9783 1.59416,-3.94325 2.3325,-5.93486 3.31248,-8.93541 5.88897,-18.1488 6.84696,-27.59377 0.13991,-1.64846 0.31179,-3.29481 0.41972,-4.94541 0.51347,-7.85241 0.27213,-15.73686 -0.50757,-23.5656 -0.87886,-8.43477 -1.77763,-16.89712 -3.75476,-25.17852 -1.6061,-6.67833 -3.2133,-13.37944 -5.98797,-19.73436 -2.81292,-6.31244 -5.64113,-12.64693 -9.70237,-18.36053 -3.74356,-5.30941 -7.54368,-10.59054 -11.82644,-15.53163 -3.4251,-3.85047 -6.96806,-7.62058 -10.9337,-10.98847 -1.14025,-1.01248 -2.16101,-1.94511 -3.35476,-2.90128 -2.1569,-1.72763 -4.49811,-3.23144 -6.70498,-4.89878 -2.97668,-2.0723 -6.01681,-4.05734 -9.00237,-6.11782 -2.1992,-1.34302 -4.3481,-2.75251 -6.48035,-4.18806 -1.89613,-1.18637 -3.76605,-2.4115 -5.51645,-3.78593 0,0 -7.33785,-2.80768 -7.33785,-2.80768 z"
       inkscape:connector-curvature="0" />
    <path
       style="fill:#000000;fill-opacity:1;fill-rule:nonzero;stroke:none;stroke-width:1px;stroke-linecap:butt;stroke-linejoin:miter;stroke-opacity:1"
       id="path3346-1"
       d="m 444.63965,943.61476 c -4.08922,-0.11714 -8.08308,0.63072 -12.0665,1.44328 -6.43752,1.48677 -12.65979,3.74649 -18.83315,6.05827 -4.95102,1.65637 -9.58788,4.05155 -14.31808,6.21562 -1.97012,0.7201 -4.58736,2.71189 -6.78137,2.14695 -2.67423,-2.88795 0.65935,0.79117 8.36423,4.5066 0.28769,0.13875 -0.29274,-0.56751 -0.38476,-0.87108 -0.59083,-1.94899 -0.72734,-4.09922 -0.97346,-6.10225 -0.85237,-9.44328 -1.80843,-18.87322 -2.82293,-28.30156 -0.47076,-4.19567 -0.93396,-8.39125 -1.45921,-12.58055 0,0 -9.05167,-4.41138 -9.05167,-4.41138 l 0,0 c 0.67097,4.21909 1.23771,8.45 1.7553,12.69065 0.5887,5.26661 1.24372,10.53253 1.63428,15.81855 0.0997,1.34902 0.40362,7.31543 0.50434,8.90761 0.0707,1.11672 0.16183,2.23205 0.24273,3.34807 0.26084,3.34967 0.0986,1.69052 0.43523,4.61102 0.59559,5.16757 1.73048,8.0391 10.33547,8.62543 2.47629,-0.29899 4.63998,-1.70196 6.86378,-2.71925 4.62565,-2.24857 9.21649,-4.59518 14.10324,-6.25952 6.12662,-2.33655 12.33233,-4.56244 18.7747,-5.88667 4.06619,-0.73743 8.14876,-1.3337 12.297,-1.03691 0,0 -8.61917,-6.20288 -8.61917,-6.20288 z"
       inkscape:connector-curvature="0" />
  </g>
</svg>
